<?xml version="1.0" encoding="UTF-8"?>
<svg width="88px" height="88px" viewBox="0 0 88 88" version="1.1" xmlns="http://www.w3.org/2000/svg" xmlns:xlink="http://www.w3.org/1999/xlink">
    <!-- Generator: Sketch 60.1 (88133) - https://sketch.com -->
    <title>CopyIcon</title>
    <desc>Created with Sketch.</desc>
    <g id="CopyIcon" stroke="none" stroke-width="1" fill="none" fill-rule="evenodd">
        <g id="np_copy_3029256_000000" fill="#7F58D3" fill-rule="nonzero">
            <path d="M81.5,21.094 L27.344,21.094 C23.8909,21.094 21.094,23.8909 21.094,27.344 L21.094,81.5 C21.094,83.1562 21.75416,84.7461 22.926,85.918 C24.09784,87.0899 25.6877,87.75 27.344,87.75 L81.5,87.75 C83.1562,87.75 84.7461,87.08984 85.918,85.918 C87.0899,84.74616 87.75,83.1563 87.75,81.5 L87.75,27.344 C87.75,25.6878 87.08984,24.0979 85.918,22.926 C84.74616,21.7541 83.1563,21.094 81.5,21.094 Z" id="Path"></path>
            <path d="M66.906,14.844 L66.906,8.594 C66.906,3.9963 63.1912,0.2659 58.5935,0.2502 L8.5935,0.2502 C3.9919,0.265825 0.2654,3.9924 0.2497,8.594 L0.2497,58.594 C0.265325,63.1917 3.9958,66.9065 8.5935,66.9065 L14.8435,66.9065 L14.8435,27.3445 C14.8435,20.4422 20.4412,14.8445 27.3435,14.8445 L66.906,14.844 Z" id="Path"></path>
        </g>
    </g>
</svg>