<?xml version="1.0" encoding="UTF-8"?>
<svg width="542px" height="542px" viewBox="0 0 542 542" version="1.1" xmlns="http://www.w3.org/2000/svg" xmlns:xlink="http://www.w3.org/1999/xlink">
    <!-- Generator: Sketch 60.1 (88133) - https://sketch.com -->
    <title>UploadIcon</title>
    <desc>Created with Sketch.</desc>
    <g id="UploadIcon" stroke="none" stroke-width="1" fill="none" fill-rule="evenodd">
        <circle id="Oval" fill="#FFFFFF" cx="271" cy="271" r="271"></circle>
        <g id="np_upload_2442972_000000" transform="translate(132.000000, 153.000000)" fill="#4B4B4B" fill-rule="nonzero">
            <path d="M80.1136011,130.131705 L34.3134132,165.309952 C35.666879,165.450712 36.3598553,165.613115 37.0853183,165.613115 L79.0852243,165.613115 C85.1271459,165.613115 85.8525534,166.251956 87.7366173,171.817471 C89.6206535,177.393712 92.0028565,183.316442 94.1358374,189.087825 C95.0561931,191.42662 95.8682781,193.819467 96.5504163,196.244884 C96.6803493,197.067808 97.1459323,197.804081 97.8280982,198.291326 C98.5102363,198.767761 99.3548081,198.962654 100.177731,198.821897 L153.700447,198.821897 L175.464337,198.821897 C180.618417,198.821897 180.596796,198.821897 182.285718,194.057546 C185.274109,185.601018 188.240879,177.122869 191.326841,168.69905 L191.316014,168.688223 C192.160586,166.576807 194.326026,165.299014 196.589009,165.58064 L242.899227,165.58064 L243.148266,164.887664 L197.974529,130.216675 C198.981507,130.00012 200.010161,129.859348 201.049681,129.772726 L222.564376,129.772726 L222.553549,129.772726 C224.231855,129.891832 225.834376,130.454864 227.209518,131.407707 C241.545534,140.968562 255.815579,150.421313 269.849734,160.285414 C275.577599,164.129215 278.511938,170.983305 277.364092,177.783065 C276.313789,185.492287 274.949513,193.190977 273.563533,200.846147 C272.177553,208.501317 270.932385,215.89676 269.015945,223.270305 C267.619155,228.012757 263.981057,231.759264 259.281846,233.29684 C256.369128,234.466251 253.272356,235.094254 250.143152,235.159228 C176.039041,235.256677 101.932159,235.256677 27.8058726,235.159228 C20.0206999,235.646473 12.7120178,231.358669 9.34443026,224.320524 C8.61896725,222.696354 8.13172178,220.985645 7.9043424,219.220773 C6.59417374,211.846951 5.43560056,204.386646 4.10378332,196.959049 C2.96685873,190.559829 1.41850026,184.128178 0.5848498,177.728957 C-0.497911769,170.842436 2.54466986,163.955915 8.37002246,160.122925 C17.8768254,153.409648 27.7733581,147.097189 37.3336588,140.719589 C42.1844927,137.449573 46.9812745,134.125504 51.8861606,130.931438 C52.8823278,130.303435 54.0192247,129.946109 55.1886083,129.913622 L77.2230363,129.913622 C78.1867168,129.935279 79.1503696,130.011071 80.1141333,130.130177 L80.1136011,130.131705 Z" id="Path"></path>
            <path d="M210.501245,66.4859917 C208.974535,66.4859917 207.924233,66.7025468 206.87393,66.7025468 L168.726972,66.7025468 C165.955067,66.7025468 165.478576,67.5904157 165.478576,70.0266154 L165.478576,134.309866 C165.478576,137.915561 165.478576,137.937182 161.981264,137.937182 L115.920517,137.948009 C112.488067,137.948009 112.455635,137.948009 112.455635,134.537179 L112.455635,70.5338906 C112.455635,66.8200922 112.455635,66.8200922 108.687508,66.8200922 L71.0394926,66.8200922 C70.0433253,66.8200922 69.0471858,66.8200922 67.4121776,66.6576752 C68.4083171,65.6290489 68.9605361,64.990208 69.5777284,64.4163404 L124.04012,13.2442004 C128.33879,9.21634514 132.659082,5.28578371 136.84937,1.18197822 C137.314967,0.445704784 138.127052,0.00175646386 138.993273,0.00175646386 C139.870331,0.00175646386 140.671578,0.445704784 141.147985,1.18197822 C153.751561,13.1250085 166.387567,25.0139867 179.067647,36.8591687 L209.558603,65.4347384 C209.753501,65.5971526 209.91593,65.8462 210.501245,66.4850409 L210.501245,66.4859917 Z" id="Path"></path>
        </g>
    </g>
</svg>