<?xml version="1.0" encoding="UTF-8"?>
<svg width="70px" height="70px" viewBox="0 0 70 70" version="1.1" xmlns="http://www.w3.org/2000/svg" xmlns:xlink="http://www.w3.org/1999/xlink">
    <!-- Generator: Sketch 55.2 (78181) - https://sketchapp.com -->
    <title>Cryptos/BTC</title>
    <desc>Created with Sketch.</desc>
    <g id="Cryptos/BTC" stroke="none" stroke-width="1" fill="none" fill-rule="evenodd">
        <g id="np_bitcoin_29738_000000" transform="translate(9.500000, 0.500000)" fill="#FFDA7C" fill-rule="nonzero">
            <path d="M40.968599,30.97343 C44.3671498,28.7077295 46.6328502,25.3091787 46.6328502,20.7777778 C45.5,12.8478261 39.8357488,10.5821256 31.9057971,10.5821256 L31.9057971,0.38647343 L25.1086957,0.38647343 L25.1086957,10.5821256 L20.5772947,10.5821256 L20.5772947,0.38647343 L13.7801932,0.38647343 L13.7801932,10.5821256 L9.24879227,10.5821256 L0.185990338,10.5821256 L0.185990338,17.3792271 L4.7173913,17.3792271 C6.98309179,17.3792271 8.11594203,18.5120773 8.11594203,19.6449275 L8.11594203,47.9661836 C8.11594203,49.0990338 6.98309179,50.2318841 5.85024155,50.2318841 L1.31884058,50.2318841 L0.185990338,58.1618357 L8.11594203,58.1618357 L12.647343,58.1618357 L12.647343,68.3574879 L19.4444444,68.3574879 L19.4444444,58.1618357 L23.9758454,58.1618357 L23.9758454,68.3574879 L30.7729469,68.3574879 L30.7729469,58.1618357 C40.968599,57.0289855 48.8985507,54.763285 50.031401,44.5676329 C51.1642512,36.6376812 46.6328502,33.2391304 40.968599,32.1062802 L40.968599,30.97343 Z M19.4444444,17.3792271 C22.8429952,17.3792271 34.1714976,16.2463768 34.1714976,24.1763285 C34.1714976,30.97343 22.8429952,30.97343 19.4444444,30.97343 L19.4444444,18.5120773 L19.4444444,17.3792271 Z M19.4444444,50.2318841 L19.4444444,36.6376812 C23.9758454,36.6376812 37.5700483,35.5048309 37.5700483,43.4347826 C37.5700483,51.3647343 23.9758454,50.2318841 19.4444444,50.2318841 Z" id="Shape"></path>
        </g>
    </g>
</svg>